<mxfile host="app.diagrams.net" agent="Mozilla/5.0 (Windows NT 10.0; Win64; x64) AppleWebKit/537.36 (KHTML, like Gecko) Chrome/138.0.0.0 Safari/537.36" version="28.0.6" pages="2">
  <diagram name="Page-1" id="Ao8XDkIN1e9-IwC-7Cmz">
    <mxGraphModel dx="1042" dy="623" grid="1" gridSize="10" guides="1" tooltips="1" connect="1" arrows="1" fold="1" page="1" pageScale="1" pageWidth="850" pageHeight="1100" math="0" shadow="0">
      <root>
        <mxCell id="0" />
        <mxCell id="1" parent="0" />
        <mxCell id="BxMZWURsQOYHSdwYcCEd-10" value="Course" style="text;html=1;align=center;verticalAlign=middle;whiteSpace=wrap;rounded=0;fontSize=18;" parent="1" vertex="1">
          <mxGeometry x="150" y="530" width="90" height="30" as="geometry" />
        </mxCell>
        <mxCell id="BxMZWURsQOYHSdwYcCEd-11" value="" style="rounded=1;whiteSpace=wrap;html=1;" parent="1" vertex="1">
          <mxGeometry x="260" y="525" width="390" height="40" as="geometry" />
        </mxCell>
        <mxCell id="YJXR4FCcqL-TZ1XRAnjT-2" value="" style="rounded=0;whiteSpace=wrap;html=1;" vertex="1" parent="1">
          <mxGeometry x="80" y="100" width="720" height="650" as="geometry" />
        </mxCell>
        <mxCell id="YJXR4FCcqL-TZ1XRAnjT-3" value="&lt;span style=&quot;font-size: 25px;&quot;&gt;welcome to Admin dashboard&lt;/span&gt;" style="rounded=1;whiteSpace=wrap;html=1;" vertex="1" parent="1">
          <mxGeometry x="245" y="230" width="390" height="40" as="geometry" />
        </mxCell>
        <mxCell id="YJXR4FCcqL-TZ1XRAnjT-6" value="&lt;font style=&quot;font-size: 26px;&quot;&gt;---------------------------------------------------------------------------&lt;/font&gt;" style="text;html=1;align=center;verticalAlign=middle;resizable=0;points=[];autosize=1;strokeColor=none;fillColor=none;" vertex="1" parent="1">
          <mxGeometry x="105" y="180" width="670" height="40" as="geometry" />
        </mxCell>
        <mxCell id="YJXR4FCcqL-TZ1XRAnjT-8" value="&lt;font style=&quot;font-size: 29px;&quot;&gt;Admin Dashboard&lt;/font&gt;" style="rounded=1;whiteSpace=wrap;html=1;" vertex="1" parent="1">
          <mxGeometry x="210" y="120" width="480" height="60" as="geometry" />
        </mxCell>
        <mxCell id="YJXR4FCcqL-TZ1XRAnjT-9" value="&lt;font style=&quot;font-size: 15px;&quot;&gt;My salary&lt;/font&gt;" style="rounded=0;whiteSpace=wrap;html=1;" vertex="1" parent="1">
          <mxGeometry x="290" y="300" width="120" height="30" as="geometry" />
        </mxCell>
        <mxCell id="YJXR4FCcqL-TZ1XRAnjT-10" value="&lt;font style=&quot;font-size: 15px;&quot;&gt;Pending Attendance&lt;/font&gt;" style="rounded=0;whiteSpace=wrap;html=1;" vertex="1" parent="1">
          <mxGeometry x="440" y="300" width="170" height="30" as="geometry" />
        </mxCell>
        <mxCell id="YJXR4FCcqL-TZ1XRAnjT-11" value="&lt;font style=&quot;font-size: 14px;&quot;&gt;Time Table&lt;/font&gt;" style="rounded=0;whiteSpace=wrap;html=1;" vertex="1" parent="1">
          <mxGeometry x="290" y="350" width="120" height="30" as="geometry" />
        </mxCell>
        <mxCell id="YJXR4FCcqL-TZ1XRAnjT-12" value="&lt;span style=&quot;font-size: 14px;&quot;&gt;Holi days&lt;/span&gt;" style="rounded=0;whiteSpace=wrap;html=1;" vertex="1" parent="1">
          <mxGeometry x="450" y="350" width="150" height="30" as="geometry" />
        </mxCell>
        <mxCell id="YJXR4FCcqL-TZ1XRAnjT-13" value="&lt;font style=&quot;font-size: 26px;&quot;&gt;---------------------------------------------------------------------------&lt;/font&gt;" style="text;html=1;align=center;verticalAlign=middle;resizable=0;points=[];autosize=1;strokeColor=none;fillColor=none;" vertex="1" parent="1">
          <mxGeometry x="110" y="560" width="670" height="40" as="geometry" />
        </mxCell>
        <mxCell id="YJXR4FCcqL-TZ1XRAnjT-14" value="&lt;span style=&quot;color: rgb(0, 0, 0); font-family: &amp;quot;Times New Roman&amp;quot;; font-size: medium;&quot;&gt;Â© CHARUSAT Student Service&lt;/span&gt;" style="rounded=1;whiteSpace=wrap;html=1;" vertex="1" parent="1">
          <mxGeometry x="270" y="610" width="320" height="60" as="geometry" />
        </mxCell>
        <mxCell id="YJXR4FCcqL-TZ1XRAnjT-15" value="&lt;font style=&quot;font-size: 23px;&quot;&gt;Notification&lt;/font&gt;" style="rounded=1;whiteSpace=wrap;html=1;" vertex="1" parent="1">
          <mxGeometry x="320" y="450" width="240" height="60" as="geometry" />
        </mxCell>
      </root>
    </mxGraphModel>
  </diagram>
  <diagram id="ElZmW3YQm7PmKgUM7BRr" name="Page-2">
    <mxGraphModel dx="1042" dy="623" grid="1" gridSize="10" guides="1" tooltips="1" connect="1" arrows="1" fold="1" page="1" pageScale="1" pageWidth="827" pageHeight="1169" math="0" shadow="0">
      <root>
        <mxCell id="0" />
        <mxCell id="1" parent="0" />
      </root>
    </mxGraphModel>
  </diagram>
</mxfile>
